<svg height="512" viewBox="0 0 512 512" width="512" xmlns="http://www.w3.org/2000/svg"><path fill="currentColor" d="M56 40v432a24.028 24.028 0 0024 24h320a40.045 40.045 0 0040-40V294.624A24.038 24.038 0 00456 272v-32a24.038 24.038 0 00-16-22.624V56a40.045 40.045 0 00-40-40H80a24.028 24.028 0 00-24 24zm384 232a8.009 8.009 0 01-8 8h-72v-48h72a8.009 8.009 0 018 8zM328 32h48v136l-19.2-14.4a8 8 0 00-9.6 0L328 168zm-224 0h208v152a8 8 0 0012.8 6.4L352 170l27.2 20.4A8 8 0 00392 184V32h8a24.028 24.028 0 0124 24v160H320a8 8 0 00-8 8v64a8 8 0 008 8h104v160a24.028 24.028 0 01-24 24H104zm224 248v-48h16v48zM72 40a8.009 8.009 0 018-8h8v448h-8a8.009 8.009 0 01-8-8z"/><circle fill="currentColor" cx="416" cy="256" r="8"/><path fill="currentColor" d="M272 64H144a8 8 0 000 16h128a8 8 0 000-16zM272 96H144a8 8 0 000 16h128a8 8 0 000-16zM272 128H144a8 8 0 000 16h128a8 8 0 000-16z"/></svg>