<svg xmlns="http://www.w3.org/2000/svg" viewBox="0 0 64 64" width="512" height="512"><path fill="currentColor" d="M16 39a1 1 0 001-1V12a1 1 0 00-2 0v26a1 1 0 001 1z"/><path fill="currentColor" d="M54 2H16a7.008 7.008 0 00-7 7v43a6 6 0 006 6h26v3a.984.984 0 00.53.88.963.963 0 001.02-.05L45 60.2l2.45 1.63A1 1 0 0049 61v-3h5a1 1 0 001-1V3a1 1 0 00-1-1zm-7 57.13l-1.45-.96a.975.975 0 00-1.1 0l-1.45.96V53h4zM53 56h-4v-3h4zm0-5H20a1 1 0 000 2h21v3H15a4.009 4.009 0 01-2.84-6.83A4.045 4.045 0 0115 48h38zm0-5H15a5.983 5.983 0 00-4 1.53V9a5 5 0 015-5h37z"/><path fill="currentColor" d="M16 51h-2a1 1 0 000 2h2a1 1 0 000-2zM16 9a1 1 0 001-1V7a1 1 0 00-2 0v1a1 1 0 001 1zM16 44a1 1 0 001-1v-1a1 1 0 00-2 0v1a1 1 0 001 1zM20.615 27.923a1 1 0 001.308-.538L23.333 24h5.334l1.41 3.385a1 1 0 101.846-.77l-5-12a1 1 0 00-1.846 0l-5 12a1 1 0 00.538 1.308zM26 17.6l1.833 4.4h-3.666zM40 16h6.132l-6.964 10.445A1 1 0 0040 28h8a1 1 0 000-2h-6.132l6.964-10.445A1 1 0 0048 14h-8a1 1 0 000 2zM34 22h3a1 1 0 000-2h-3a1 1 0 000 2z"/></svg>