<svg height="512" viewBox="0 0 512 512" width="512" xmlns="http://www.w3.org/2000/svg"><path fill="currentColor" d="M371.938 417.317h-96.417l-10.088-10.088 25.315-25.315a11.455 11.455 0 003.104-10.582 11.45 11.45 0 00-7.224-8.327l-132.139-49.178c-4.638-1.727-9.697-.626-13.198 2.877-3.501 3.501-4.603 8.559-2.876 13.198l32.533 87.415H38.466c-12.94 0-23.466-10.526-23.466-23.465V232.06c0-4.143-3.357-7.5-7.5-7.5s-7.5 3.357-7.5 7.5v161.792c0 21.21 17.256 38.466 38.466 38.466h138.065l11.061 29.721a11.45 11.45 0 008.329 7.227 11.448 11.448 0 0010.58-3.104l25.315-25.314 25.77 25.77a12.459 12.459 0 008.837 3.652c3.201 0 6.402-1.218 8.839-3.653l15.941-15.94c4.872-4.874 4.871-12.804-.001-17.677h-.001l-.68-.68h81.416c4.143 0 7.5-3.357 7.5-7.5s-3.357-7.503-7.499-7.503zm-105.514 36.922l-29.304-29.304a7.48 7.48 0 00-5.304-2.196 7.481 7.481 0 00-5.304 2.196l-26.764 26.764-45.37-121.908 121.907 45.371-26.764 26.764a7.5 7.5 0 00.001 10.607l29.304 29.303z"/><path fill="currentColor" d="M473.534 41.732h-26.222c-4.143 0-7.5 3.357-7.5 7.5s3.357 7.5 7.5 7.5h26.222c12.939 0 23.466 10.526 23.466 23.466v46.991H15V80.198c0-12.939 10.526-23.466 23.466-23.466h374.159c4.143 0 7.5-3.357 7.5-7.5s-3.357-7.5-7.5-7.5H38.466C17.256 41.732 0 58.988 0 80.198V198.31c0 4.143 3.357 7.5 7.5 7.5s7.5-3.357 7.5-7.5v-56.12h482v251.662c0 12.939-10.526 23.466-23.466 23.466h-65.659c-4.143 0-7.5 3.357-7.5 7.5s3.357 7.5 7.5 7.5h65.659c21.21 0 38.466-17.256 38.466-38.466V80.198c0-21.21-17.256-38.466-38.466-38.466z"/><path fill="currentColor" d="M49.698 91.961c0 7.673 6.22 13.893 13.892 13.893s13.892-6.22 13.892-13.893-6.22-13.892-13.892-13.892-13.892 6.219-13.892 13.892zM92.434 91.961c0 7.673 6.22 13.893 13.892 13.893s13.892-6.22 13.892-13.893-6.22-13.892-13.892-13.892-13.892 6.219-13.892 13.892zM135.17 91.961c0 7.673 6.22 13.893 13.892 13.893s13.892-6.22 13.892-13.893-6.22-13.892-13.892-13.892-13.892 6.219-13.892 13.892zM91.808 307.31h.043c3.17 0 6-1.994 7.064-4.982l18.578-52.132 17.752 52.037a7.502 7.502 0 007.067 5.078h.031a7.5 7.5 0 007.078-5.02l25.184-71.846a7.5 7.5 0 00-14.157-4.961l-18.01 51.379-17.692-51.865c-2.006-6.591-12.072-6.652-14.163-.096l-18.604 52.205-17.696-51.497a7.495 7.495 0 00-9.53-4.655 7.499 7.499 0 00-4.655 9.53l24.66 71.762a7.5 7.5 0 007.05 5.063zM230.575 307.31h.043c3.17 0 6-1.994 7.064-4.982l18.578-52.132 17.752 52.037a7.502 7.502 0 007.067 5.078h.031a7.5 7.5 0 007.078-5.02l25.184-71.846a7.5 7.5 0 00-14.157-4.961l-18.01 51.379-17.692-51.865c-2.007-6.592-12.072-6.652-14.163-.096l-18.604 52.205-17.696-51.496c-1.346-3.918-5.614-6.005-9.53-4.655a7.499 7.499 0 00-4.655 9.53l24.66 71.762a7.503 7.503 0 007.05 5.062zM367.092 307.31h.042c3.17 0 6-1.994 7.064-4.982l18.578-52.132 17.752 52.037a7.502 7.502 0 007.067 5.078h.031a7.5 7.5 0 007.078-5.02l25.183-71.846a7.5 7.5 0 00-14.157-4.961l-18.009 51.379-17.692-51.865c-2.005-6.591-12.073-6.652-14.163-.096l-18.604 52.205-17.697-51.496a7.496 7.496 0 00-9.53-4.655 7.499 7.499 0 00-4.655 9.53l24.661 71.762a7.502 7.502 0 007.051 5.062z"/></svg>