<svg xmlns="http://www.w3.org/2000/svg" width="24" height="24" viewBox="0 0 24 24"><path fill="currentColor" d="M3 7.921l8.427 5.899c.34.235.795.246 1.147 0L21 7.921V18c0 .272-.11.521-.295.705S20.272 19 20 19H4c-.272 0-.521-.11-.705-.295S3 18.272 3 18zM1 5.983V18c0 .828.34 1.579.88 2.12S3.172 21 4 21h16c.828 0 1.579-.34 2.12-.88S23 18.828 23 18V6.012v-.03a2.995 2.995 0 00-.88-2.102A2.998 2.998 0 0020 3H4c-.828 0-1.579.34-2.12.88A2.995 2.995 0 001 5.983zm19.894-.429L12 11.779 3.106 5.554a.999.999 0 01.188-.259A.994.994 0 014 5h16a1.016 1.016 0 01.893.554z"/></svg>