<svg height="512" viewBox="0 0 512 512" width="512" xmlns="http://www.w3.org/2000/svg"><path fill="currentColor" d="M504.5 433.613h-13.27V164.167c0-19.735-16.06-35.79-35.8-35.79h-17.617a30.445 30.445 0 002.988-13.145 30.405 30.405 0 00-16.2-26.923l-98.07-51.95a7.5 7.5 0 00-7.021 13.255l98.068 51.949c5.149 2.729 8.223 7.839 8.223 13.669s-3.074 10.939-8.221 13.667l-95.332 50.502-60.608-69.114a7.5 7.5 0 00-11.278 9.89l58.264 66.441-36.072 19.109a35.37 35.37 0 01-33.102.002l-145.03-76.828c-5.148-2.729-8.223-7.839-8.223-13.668s3.074-10.939 8.221-13.668l145.027-76.828a35.361 35.361 0 0133.101-.002l20.76 11a7.5 7.5 0 107.024-13.254l-20.764-11.002a50.351 50.351 0 00-47.139.001L87.397 88.311A30.403 30.403 0 0071.2 115.233c0 4.645 1.062 9.114 2.988 13.145H56.57c-19.74 0-35.8 16.055-35.8 35.79v269.446H7.5a7.5 7.5 0 00-7.5 7.5v16.623c0 26.821 21.82 48.642 48.641 48.642h414.717c26.821 0 48.642-21.82 48.642-48.642v-16.623a7.5 7.5 0 00-7.5-7.501zM320.516 303.497l9.779 16.938c2.021 3.501.673 6.592 0 7.758s-2.676 3.879-6.719 3.879h-6.121c-4.043 0-6.045-2.713-6.719-3.879-.674-1.167-2.021-4.257 0-7.758zm7.5-110.176l31.034-16.44v29.783c0 21.39-12.088 40.566-31.034 49.672zm-72.017 31.521a50.383 50.383 0 0023.572-5.857l33.445-17.717v60.871c-40.978 13.574-86.315 12.05-126.312-4.574-20.505-8.522-33.754-28.502-33.754-50.9V176.88l79.483 42.106a50.34 50.34 0 0023.566 5.856zM35.77 164.167c0-11.464 9.331-20.79 20.8-20.79h33.137l37.753 20H63.27a7.5 7.5 0 00-7.5 7.5v235.24a7.5 7.5 0 007.5 7.5h39.59a7.5 7.5 0 000-15H70.77v-220.24h67.18v28.287c0 28.479 16.877 53.895 42.998 64.752 23.848 9.912 49.45 14.868 75.053 14.868 19.254 0 38.507-2.805 57.016-8.411v8.614l-15.27 26.448c-4.114 7.125-4.114 15.633 0 22.758s11.481 11.379 19.709 11.379h6.121c8.228 0 15.595-4.254 19.709-11.379s4.114-15.633 0-22.758l-15.27-26.448v-13.854c1.014-.401 2.029-.798 3.037-1.217 26.12-10.857 42.997-36.273 42.997-64.752v-28.287h67.18v220.24H132.86a7.5 7.5 0 000 15h315.87a7.5 7.5 0 007.5-7.5v-235.24a7.5 7.5 0 00-7.5-7.5h-64.191l37.753-20h33.137c11.469 0 20.8 9.326 20.8 20.79v269.446H35.77zm266.61 284.45c-2.771 8.065-10.434 13.878-19.427 13.878h-53.905c-8.994 0-16.656-5.813-19.428-13.878zM497 457.736c0 18.55-15.092 33.642-33.642 33.642H48.641c-18.55 0-33.641-15.092-33.641-33.642v-9.123h13.193c.026 0 .051.004.077.004h165.877c3.126 16.422 17.582 28.878 34.901 28.878h53.905c17.318 0 31.774-12.457 34.9-28.878H483.73c.026 0 .051-.004.077-.004H497z"/><path fill="currentColor" d="M258.268 371.117a7.5 7.5 0 00-7.5-7.5H100.623a7.5 7.5 0 000 15h150.146a7.5 7.5 0 007.499-7.5zM100.623 347.073h100.39a7.5 7.5 0 000-15h-100.39a7.5 7.5 0 000 15z"/></svg>