<svg xmlns="http://www.w3.org/2000/svg" width="24" height="24" viewBox="0 0 24 24"><path fill="currentColor" d="M13 9a1 1 0 001 1h5.679a.99.99 0 01.808.407c.153.208.225.47.184.742l-1.38 8.998a1.015 1.015 0 01-.325.6.995.995 0 01-.686.253H8v-9.788l3.608-8.118A2 2 0 0113 5zm2-1V5c0-1.104-.449-2.106-1.172-2.828S12.104 1 11 1c-.405 0-.754.241-.914.594l-4 9A.982.982 0 006 11v11a1 1 0 001 1h11.28a2.982 2.982 0 002.021-.763 3.013 3.013 0 00.967-1.783l1.38-9.002c.125-.82-.096-1.614-.55-2.231A2.992 2.992 0 0019.641 8zM7 21H4c-.276 0-.525-.111-.707-.293S3 20.276 3 20v-7c0-.276.111-.525.293-.707S3.724 12 4 12h3a1 1 0 000-2H4a2.997 2.997 0 00-3 3v7a2.997 2.997 0 003 3h3a1 1 0 000-2z"/></svg>