<svg xmlns="http://www.w3.org/2000/svg" width="24" height="24" viewBox="0 0 24 24"><path fill="currentColor" d="M12 8h8c.276 0 .525.111.707.293S21 8.724 21 9v11c0 .276-.111.525-.293.707S20.276 21 20 21H4c-.276 0-.525-.111-.707-.293S3 20.276 3 20V9c0-.276.111-.525.293-.707S3.724 8 4 8h8zm4.293-6.707L12 5.586 7.707 1.293a.999.999 0 10-1.414 1.414L9.586 6H4a2.997 2.997 0 00-3 3v11a2.997 2.997 0 003 3h16a2.997 2.997 0 003-3V9a2.997 2.997 0 00-3-3h-5.586l3.293-3.293a.999.999 0 10-1.414-1.414z"/></svg>