<svg xmlns="http://www.w3.org/2000/svg" width="24" height="24" viewBox="0 0 24 24"><path fill="currentColor" d="M10 7.081v9.839l-3.375-2.7A.994.994 0 006 14H3v-4h3a.995.995 0 00.625-.219zm.375-2.862L5.649 8H2a1 1 0 00-1 1v6a1 1 0 001 1h3.649l4.726 3.781A1 1 0 0012 19V5a1 1 0 00-1.625-.781zm5.918 5.488L18.586 12l-2.293 2.293a.999.999 0 101.414 1.414L20 13.414l2.293 2.293a.999.999 0 101.414-1.414L21.414 12l2.293-2.293a.999.999 0 10-1.414-1.414L20 10.586l-2.293-2.293a.999.999 0 10-1.414 1.414z"/></svg>