<svg xmlns="http://www.w3.org/2000/svg" width="24" height="24" viewBox="0 0 24 24"><path fill="currentColor" d="M10 7.081v9.839l-3.375-2.7A.994.994 0 006 14H3v-4h3a.995.995 0 00.625-.219zm.375-2.862L5.649 8H2a1 1 0 00-1 1v6a1 1 0 001 1h3.649l4.726 3.781A1 1 0 0012 19V5a1 1 0 00-1.625-.781zm7.988 1.418a8.97 8.97 0 012.635 6.364 8.966 8.966 0 01-2.635 6.362 1 1 0 001.414 1.414c2.147-2.147 3.22-4.963 3.221-7.776s-1.074-5.63-3.221-7.778a.999.999 0 10-1.414 1.414zm-3.53 3.53c.781.781 1.171 1.803 1.171 2.828s-.39 2.047-1.171 2.828a1 1 0 001.414 1.414c1.171-1.171 1.757-2.708 1.757-4.242s-.586-3.071-1.757-4.242a.999.999 0 10-1.414 1.414z"/></svg>