<svg xmlns="http://www.w3.org/2000/svg" width="24" height="24" viewBox="0 0 24 24"><path fill="currentColor" d="M10.299 5.295a.995.995 0 011.414-.004.995.995 0 01.004 1.414.99.99 0 01-.697.295H2a1 1 0 000 2h9.043a2.993 2.993 0 002.093-.885 3 3 0 10-4.255-4.23.999.999 0 101.418 1.41zm1.582 14.82c.584.587 1.352.883 2.119.885a2.996 2.996 0 003.009-2.991A2.996 2.996 0 0014.044 15H2a1 1 0 000 2h12.02a.994.994 0 01.698.295.995.995 0 01-.004 1.414.995.995 0 01-1.414-.004.999.999 0 10-1.418 1.41zm6.555-11.677c.294-.293.676-.438 1.061-.438s.767.147 1.06.441.438.676.438 1.061-.147.767-.441 1.06a1.492 1.492 0 01-1.057.438H2a1 1 0 000 2h17.502a3.494 3.494 0 002.466-1.022c.684-.682 1.027-1.579 1.028-2.474s-.34-1.792-1.022-2.476S20.394 6.001 19.5 6s-1.792.34-2.476 1.022a1 1 0 101.412 1.416z"/></svg>