<svg xmlns="http://www.w3.org/2000/svg" width="24" height="24" viewBox="0 0 24 24"><path fill="currentColor" d="M21.563 6.637c.287 1.529.448 3.295.437 5.125a27.145 27.145 0 01-.437 5.021c-.057.208-.15.403-.272.575a1.743 1.743 0 01-.949.675c-.604.161-2.156.275-3.877.341-2.23.086-4.465.086-4.465.086s-2.235 0-4.465-.085c-1.721-.066-3.273-.179-3.866-.338a1.854 1.854 0 01-.566-.268 1.763 1.763 0 01-.67-.923c-.285-1.526-.444-3.286-.433-5.11-.021-1.54.121-3.292.437-5.06.057-.208.15-.403.272-.575.227-.321.558-.565.949-.675.604-.161 2.156-.275 3.877-.341C9.765 5 12 5 12 5s2.235 0 4.466.078c1.719.06 3.282.163 3.856.303.219.063.421.165.598.299.307.232.538.561.643.958zm1.947-.46a3.762 3.762 0 00-1.383-2.093 3.838 3.838 0 00-1.249-.625c-.898-.22-2.696-.323-4.342-.38C14.269 3 12 3 12 3s-2.272 0-4.541.087c-1.642.063-3.45.175-4.317.407a3.77 3.77 0 00-2.064 1.45 3.863 3.863 0 00-.602 1.339A29.155 29.155 0 000 11.764a29.2 29.2 0 00.477 5.502.878.878 0 00.021.088 3.76 3.76 0 001.451 2.048c.357.252.757.443 1.182.561.879.235 2.686.347 4.328.41 2.269.087 4.541.087 4.541.087s2.272 0 4.541-.087c1.642-.063 3.449-.175 4.317-.407a3.767 3.767 0 002.063-1.45c.27-.381.47-.811.587-1.267.006-.025.012-.05.015-.071.34-1.884.496-3.765.476-5.44a29.214 29.214 0 00-.477-5.504l-.012-.057zm-12.76 7.124v-3.102l2.727 1.551zm-.506 2.588l5.75-3.27a1 1 0 000-1.739l-5.75-3.27a1 1 0 00-1.495.869v6.54a1 1 0 001.494.869z"/></svg>